<svg version="1.2" baseProfile="tiny-ps" xmlns="http://www.w3.org/2000/svg" viewBox="0 0 1190 1684" width="353" height="500">
	<title>jubrac-ai-svg</title>
	<style>
		tspan { white-space:pre }
		.shp0 { fill: #c10337 } 
	</style>
	<g id="Layer 1">
		<g id="&lt;Group&gt;">
			<g id="&lt;Group&gt;">
				<path id="&lt;Path&gt;" class="shp0" d="M753.38 723.54C742.11 735.24 728.25 744.1 718.64 757.78C710.35 769.59 701.86 781.18 695.64 794.19C691.85 802.14 689.04 810.56 685.89 818.81C685.24 820.52 684.54 822.56 687.93 824.04C688.4 823.35 688.99 822.39 689.69 821.53C692.46 818.08 695.45 814.8 698.02 811.22C704.58 802.03 713.83 795.16 719.79 785.41C727.7 772.45 735.26 759.36 741.85 745.66C743.81 741.6 744.8 736.11 749.9 734.31C753.8 732.93 755.69 730 757.25 726.69C758 725.11 760.1 723.04 758.32 721.61C756.67 720.28 754.61 722.27 753.38 723.54Z" />
			</g>
			<g id="&lt;Group&gt;">
				<path id="&lt;Path&gt;" class="shp0" d="M510.09 838.08C512.45 834.24 515.84 832.19 519.65 830.19C535.65 821.78 551.63 814.22 558.6 794.74C564 779.66 568.67 764.62 571.67 748.98C571.99 746.95 572.03 744.66 569.63 744.29C566.64 743.82 567.88 746.55 567.67 747.96C567.28 750.65 565.6 752.4 563.81 754.18C559.17 758.78 554.13 763.06 550.09 768.14C541.25 779.25 532 789.69 518.53 795.37C517.49 795.81 517.57 796.9 517.26 797.78C515.18 803.84 510.64 808.71 508.24 814.33C505.15 821.54 495.68 827.95 504.01 838.12C507.41 842.28 508.66 840.4 510.09 838.08Z" />
			</g>
			<g id="&lt;Group&gt;">
				<path id="&lt;Compound Path&gt;" fill-rule="evenodd" class="shp0" d="M1067.42 684.85C1073.23 678.61 1072.21 687.16 1070.73 690.96C1068.58 696.46 1065.14 701.51 1060.65 703.96C1058.15 705.32 1053.28 707.14 1051.55 709.38C1049.88 711.54 1043.69 712.9 1041.53 714.57C1039.21 716.35 1032.18 722.4 1031.11 724.4C1029.29 727.8 1024.74 728.68 1022.16 731.55C1020.15 733.78 1018.99 737.4 1016.71 738.85C1017.74 739.96 1018.18 742.56 1018.85 747.02C1024.05 781.46 1023.72 815.94 1019.81 850.5C1014.74 895.17 1002.68 937.82 984.01 978.63C966.95 1015.92 944.94 1050.04 917.95 1080.97C876.34 1128.64 826.64 1165.34 768.89 1191.09C727.65 1209.47 684.48 1220.64 639.54 1225.25C613.61 1227.92 587.67 1228.27 561.78 1226.09C527.98 1223.24 494.87 1216.61 462.58 1205.85C403.09 1186.02 350.66 1154.47 304.87 1111.8C281.29 1089.83 260.73 1065.23 242.73 1038.51C238.42 1032.12 238.23 1032.11 234.32 1038.86C231.04 1044.53 226.39 1048.99 222.05 1053.82C217.07 1059.38 211.08 1063.57 205.61 1068.2C197.82 1074.8 187.86 1078.56 177.28 1077.86C164.72 1077.02 151.81 1077.64 140.22 1071.1C136.65 1069.08 133.26 1067.12 131.59 1063.04C130.25 1059.77 130.26 1057.91 134.65 1058.38C138.71 1058.81 142.5 1059.7 146.14 1061.74C155.44 1066.96 164.73 1066.74 174.83 1062.92C186.49 1058.51 193.74 1049.71 200.8 1040.51C208.58 1030.37 216.72 1020.49 223.77 1008.93C227.17 1014.54 230.18 1019.62 233.3 1024.64C236.78 1030.23 242.28 1030.25 246.45 1024.73C259.34 1007.69 270.26 989.44 280.38 970.62C292.76 947.61 302.76 923.44 314.76 900.3C329.65 871.59 341.22 841.49 353.76 811.81C366.01 782.81 377.43 753.42 387.95 723.76C393.71 707.52 397.34 690.45 400.42 673.43C402.19 663.63 398.88 659.4 389.65 657.96C386.49 657.47 383.82 657.82 382.26 661.61C373.14 683.78 364.52 706.15 354.35 727.87C349.22 738.81 344.21 749.77 340.35 761.28C338.43 767 335.45 772.51 332.65 777.84C326.18 790.19 322.6 803.56 317.35 816.3C312.99 826.9 308.09 837.27 303.33 847.69C301.88 850.87 301.95 855.05 300.28 857.39C296.1 863.23 296.13 870.56 291.82 876.45C288.74 880.67 286.29 886 284.5 891.19C282.61 896.63 277.65 900.79 278.55 907.6C278.83 909.68 274.56 912.05 273.17 914.71C265.37 929.66 256.91 944.37 250.58 959.93C247.63 967.16 245.14 974.84 241.03 981.24C236.09 988.93 231.46 996.92 225.86 1004.18C222.86 1008.06 221.78 1004.06 220.81 1002.24C213.73 989.02 207.35 975.45 201.71 961.55C188.66 929.35 179.77 896.02 174.8 861.65C169.99 828.4 168.91 794.97 172.24 761.57C182.03 663.53 220.55 578.33 288.3 506.71C328.59 464.13 376.02 431.53 429.97 408.5C470.07 391.38 511.82 380.88 555.22 376.67C600.57 372.28 645.43 375.03 689.9 384.94C758.04 400.13 818.64 430.52 871.81 475.57C928.87 523.93 970.36 583.32 996.46 653.49C1003.52 672.45 1008.54 691.9 1012.93 711.58C1013.08 712.26 1013.12 712.83 1013.07 713.32C1026.68 711.68 1039.79 706.13 1050.45 697.51C1054.49 694.24 1061.76 689.35 1067.42 684.85ZM378.77 919.68C381.04 919.09 384.9 917.72 384.68 916.82C382.46 907.82 390.68 908.7 394.68 905.68C394.99 905.45 395.21 905.12 395.47 904.83C403.33 896.03 411.64 887.71 417.56 877.2C421.68 869.91 427.78 863.75 431.45 856.05C431.84 855.22 432.4 854.32 433.84 854.87C434.07 856.66 434.45 858.53 434.54 860.41C434.95 868.96 438.73 875.27 447.12 877.77C455.98 880.41 464.53 880.73 471.27 872.44C474.91 867.96 478.61 863.57 481.54 858.56C483.77 854.75 486.01 850.9 488.67 847.39C493.01 841.64 495.38 841.53 500.88 845.94C508.69 852.2 517.27 853.65 526.8 850.32C535.91 847.13 544.64 843.28 552.57 837.68C555.74 835.43 559.14 833.5 563.15 830.98C559.27 838.37 561.65 846.11 568.38 850.04C570.59 851.32 570.8 852.56 568.46 853.61C564.27 855.49 564.15 859.38 562.92 863.03C561.3 867.8 564.85 868.2 567.36 869.45C570.14 870.84 573.29 872.22 575.32 868.32C579.22 860.82 583.98 853.77 587.82 846.32C589.87 842.34 590.79 838.45 594.21 834.6C601.11 826.81 605.95 817.18 611.57 808.26C613.31 805.5 616.31 802.68 611.43 799.77C610.13 799 611.31 797.35 611.75 796.1C612.64 793.58 613.73 791.06 614.14 788.44C614.96 783.1 616.05 782.43 620.84 785.48C623.33 787.07 626.22 788.59 627.7 785.36C630.7 778.81 636.77 775.09 640.95 769.65C646.73 762.11 653.48 755.36 662.03 748.7C658.58 757.12 655.57 764.28 652.73 771.52C651.24 775.32 650.48 779.33 651.66 783.36C652.16 785.03 652.66 787.45 655.55 786.01C662.28 782.67 669.15 778.99 673.82 773.29C685.6 758.91 693.39 742.16 699.93 724.83C701.75 720.01 700.54 716.22 696.23 713.35C690.33 709.42 683.6 708.41 680.27 711.48C677.17 714.34 673.51 715.76 669.64 716.97C658.61 720.45 649.46 727 640.96 734.62C635.66 739.36 630.33 744.06 624.98 748.76C624.14 749.5 623.15 750.57 621.97 749.93C620.36 749.07 621.21 747.55 621.58 746.36C622.34 743.98 623.4 741.7 624.1 739.32C625.55 734.38 627.98 729.63 627.26 724.24C627.03 722.54 627.14 719.86 625.48 719.68C619.51 719.06 615.15 714.69 609.54 713.44C606.72 712.81 605.6 714.61 605.24 716.86C603.95 724.93 600.13 732.13 597.56 739.76C597.15 740.99 597.24 742.98 594.76 742.9C594.93 736.69 594.44 730.18 587.61 728C578.61 725.13 569.2 723.7 559.92 727.22C557.25 728.24 554.86 729.97 551.92 731.61C552.07 728.29 553.62 726.5 554.95 724.71C564.6 711.74 573.25 698.17 580.19 683.53C581.33 681.12 582.92 678.89 584.54 676.76C591.33 667.84 596.96 658.25 601.28 647.93C604.32 640.66 603.2 638.77 595.47 636.35C586.56 633.56 585.64 633.94 580.91 642.07C575.31 651.7 569.76 661.37 563.99 670.91C561.61 674.84 556.71 678.33 556.49 682.23C556.05 689.76 551.6 692.87 547.2 697.91C536.42 710.27 527.87 724.54 519.7 738.96C514.54 748.06 510.75 757.77 505.1 766.76C496.07 781.12 489.66 797.18 482.8 812.82C481.02 816.89 479.61 821.2 476.48 824.17C470.73 829.61 467.15 836.23 463.73 843.18C461.65 847.41 460 852.27 455.06 855.58C455.06 853.53 454.8 852.33 455.1 851.29C462.11 827.23 467.05 802.43 479.88 780.41C482.33 776.2 482.46 772.11 480.22 767.82C478.89 765.27 477.71 762.63 476.51 760.02C474.8 756.29 472.93 753.7 469.48 758.62C468.57 759.91 467.22 760.65 465.64 760.98C461.83 761.77 455.92 759.54 456.73 767.08C451.38 769.35 450.31 775.15 447.07 779.14C432.95 796.56 420.86 815.52 409.35 834.68C401.64 847.53 392.3 859.19 384.55 871.96C381.14 877.56 377.73 883.44 371.64 888.87C371.18 878.6 374.46 870.54 377.25 862.44C382.36 847.54 388.13 832.86 392.92 817.87C396.18 807.68 396.68 796.96 396.13 786.25C395.87 781.1 389.83 777.02 385.87 779.4C381.4 782.09 379.91 786.87 378.1 791.22C370.94 808.42 364.37 825.86 356.97 842.95C348.79 861.85 342.9 881.1 344.46 902C344.63 904.26 344.43 906.49 346.17 908.48C354.93 918.47 365.39 923.2 378.77 919.68ZM680.79 890.37C680.07 887.65 677.23 889.7 675.3 889.62C673.45 889.55 669.9 891.26 670.05 888.65C670.51 880.53 665.29 882.49 661.32 883.38C640.39 888.06 619.24 891.68 598.39 896.79C578.31 901.71 557.98 905.62 537.86 910.36C520.49 914.45 503.18 918.84 485.97 923.55C450.56 933.23 414.36 939.57 378.89 948.98C376.37 949.65 372.99 949.51 373.13 953.26C373.26 956.6 376.04 957.82 378.85 958.97C387.67 962.56 396.74 964.27 406.32 963.11C418.91 961.2 431.77 960.27 444.19 956.69C451.75 954.51 459.37 952.52 467.17 951.3C482.15 948.96 497.16 946.46 511.68 942.16C542.24 933.12 572.92 924.54 603.88 917.04C614.56 914.45 624.54 909.33 635.22 907.56C649.63 905.17 662.3 897.99 676.29 894.71C678.48 894.19 681.49 893 680.79 890.37ZM1007.37 741.66C1010.83 739.71 1013.07 738.53 1014.61 738.27C1014.58 733.25 1014.54 728.23 1014.5 723.21C1014.5 722.44 1014.5 721.63 1014.84 720.93L1013.01 713.62C1012.76 714.88 1011.82 715.64 1010.35 716.46C990.06 727.85 968.73 736.96 947.14 745.56C941 748 934.57 750.32 930.08 755.82C927.51 758.96 923.23 758.27 919.85 758.95C907.17 761.48 897.07 769.6 885.21 773.93C863.24 781.95 841.62 790.93 819.88 799.58C816.68 800.85 813.69 802.65 810.5 803.94C806.85 805.41 803.17 805.14 800.29 802.32C797.58 799.67 798.22 796.17 799.36 793.09C805.95 775.36 815.09 759.15 826.3 743.79C835.14 731.71 845.22 720.93 856.4 711.41C862.48 706.23 866.66 699.82 871.79 694.11C873.41 692.32 874.3 688.16 874.69 684.92C874.91 683.08 873.16 682.56 871.47 682.41C868.79 682.18 866.59 683.46 864.43 684.66C855.56 689.61 846.74 694.63 837.91 699.66C835.29 701.16 832.22 702.23 831.79 705.96C831.72 706.57 831.01 707.4 830.42 707.61C815.83 712.84 807.88 725.59 798.85 736.63C788.91 748.81 780.75 762.43 771.58 775.26C769.3 778.45 768.58 782.68 764.58 785.85C763.84 781.43 765.08 778.42 766.32 775.43C767.39 772.87 769.65 770.54 766.97 767.56C765.9 766.36 767.03 765.46 768.25 765.11C769.72 764.69 770.57 763.83 770.73 762.3C772.1 749.37 779.4 738.65 784.29 727.08C788.65 716.75 792.01 706.21 794.87 695.44C795.99 691.21 792.09 684.34 787.58 682.62C782.5 680.67 777.87 682.79 775.53 688.17C772.62 694.88 767.51 700.37 764.97 707.3C764.21 709.37 762.53 709.34 760.65 708.85C757.12 707.94 753.34 707.67 750.04 706.27C742.49 703.07 736.49 705.57 731.25 710.78C727.18 714.85 723.42 719.25 719.76 723.69C705.83 740.6 691.15 757.09 680.05 775.98C671.32 790.85 665.13 807.31 662.03 824.37C660.49 832.87 662.1 841.99 670.08 848.01C672.74 850.02 675.74 851.01 678.12 847.59C680.32 844.42 682.28 845.34 683.76 847.89C686.18 852.02 688.96 851.18 692.92 850.07C705.31 846.59 713.68 838.02 719.89 827.86C724.03 821.08 730.51 816.98 734.62 810.29C735.92 814.7 738.88 817.43 740.9 820.74C743.84 825.57 747.15 827.9 752.7 825.32C753.03 825.17 753.52 825.04 753.82 825.17C762.64 829 766.91 822.32 771.9 817.34C776.56 812.7 779.25 817.01 781.72 819.82C791.54 830.97 803.21 833.88 817.04 828.59C820.8 827.15 824.67 825.99 828.41 824.49C858.65 812.36 888.99 800.43 919.06 787.87C930.56 783.07 941.6 777.07 952.53 771.05C955.96 769.16 959.92 768.95 963.06 766.59C976.72 756.32 992.6 749.98 1007.37 741.66Z" />
			</g>
		</g>
	</g>
</svg>